<svg width="24" height="25" viewBox="0 0 24 25" fill="none" xmlns="http://www.w3.org/2000/svg">
<rect y="0.0126953" width="24" height="24" rx="12" fill="#999999"/>
<path d="M11.8999 19.1917C10.9453 19.1917 10.0952 19.0276 9.34943 18.6995C8.60795 18.3671 8.02202 17.9111 7.59162 17.3316C7.16548 16.7478 6.94602 16.0745 6.93324 15.3117H9.72017C9.73722 15.6313 9.84162 15.9126 10.0334 16.1555C10.2294 16.3941 10.4893 16.5795 10.8132 16.7116C11.1371 16.8437 11.5014 16.9097 11.9062 16.9097C12.3281 16.9097 12.701 16.8351 13.0249 16.686C13.3487 16.5368 13.6023 16.3302 13.7855 16.066C13.9688 15.8018 14.0604 15.4971 14.0604 15.1519C14.0604 14.8025 13.9624 14.4935 13.7663 14.2251C13.5746 13.9523 13.2976 13.7393 12.9354 13.5858C12.5774 13.4324 12.1513 13.3557 11.657 13.3557H10.4361V11.3231H11.657C12.0746 11.3231 12.4432 11.2506 12.7628 11.1057C13.0866 10.9608 13.3381 10.7606 13.517 10.5049C13.696 10.2449 13.7855 9.94238 13.7855 9.59721C13.7855 9.26909 13.7067 8.98145 13.549 8.73429C13.3956 8.48287 13.1783 8.28684 12.897 8.14622C12.62 8.00559 12.2962 7.93528 11.9254 7.93528C11.5504 7.93528 11.2074 8.00346 10.8963 8.13983C10.5852 8.27193 10.3359 8.46156 10.1484 8.70872C9.96094 8.95588 9.8608 9.24565 9.84801 9.57804H7.19531C7.2081 8.82377 7.4233 8.159 7.84091 7.58372C8.25852 7.00843 8.82102 6.55886 9.52841 6.235C10.2401 5.90687 11.0433 5.74281 11.9382 5.74281C12.8416 5.74281 13.6321 5.90687 14.3097 6.235C14.9872 6.56312 15.5135 7.0063 15.8885 7.56454C16.2678 8.11852 16.4553 8.74068 16.451 9.43102C16.4553 10.164 16.2273 10.7755 15.767 11.2655C15.3111 11.7556 14.7166 12.0667 13.9837 12.1988V12.301C14.9467 12.4246 15.6797 12.7591 16.1825 13.3046C16.6896 13.8458 16.9411 14.5233 16.9368 15.3373C16.9411 16.083 16.7259 16.7456 16.2912 17.3252C15.8608 17.9047 15.2663 18.3607 14.5078 18.6931C13.7493 19.0255 12.88 19.1917 11.8999 19.1917Z" fill="white"/>
</svg>
