<svg width="24" height="25" viewBox="0 0 24 25" fill="none" xmlns="http://www.w3.org/2000/svg">
<rect y="0.0126953" width="24" height="24" rx="12" fill="#999999"/>
<path d="M7.06108 19.0127V17.0184L11.7209 12.7037C12.1172 12.3202 12.4496 11.9751 12.718 11.6682C12.9908 11.3614 13.1974 11.061 13.3381 10.767C13.4787 10.4687 13.549 10.1469 13.549 9.80176C13.549 9.41823 13.4616 9.08798 13.2869 8.81099C13.1122 8.52974 12.8736 8.31454 12.571 8.16539C12.2685 8.01198 11.9254 7.93528 11.5419 7.93528C11.1413 7.93528 10.7919 8.01625 10.4936 8.17818C10.1953 8.34011 9.9652 8.57235 9.80327 8.87491C9.64134 9.17747 9.56037 9.53755 9.56037 9.95517H6.93324C6.93324 9.09863 7.12713 8.35502 7.51491 7.72434C7.9027 7.09366 8.44602 6.60573 9.14489 6.26056C9.84375 5.91539 10.6491 5.74281 11.5611 5.74281C12.4986 5.74281 13.3146 5.909 14.0092 6.24139C14.7081 6.56951 15.2514 7.02548 15.6392 7.60929C16.027 8.19309 16.2209 8.86213 16.2209 9.61639C16.2209 10.1107 16.1229 10.5986 15.9268 11.0802C15.7351 11.5617 15.392 12.0965 14.8977 12.6846C14.4034 13.2684 13.7067 13.9694 12.8075 14.7876L10.8963 16.6604V16.7499H16.3935V19.0127H7.06108Z" fill="white"/>
</svg>
